<?xml version="1.0" encoding="UTF-8" standalone="no"?>
<!-- Created with Inkscape (http://www.inkscape.org/) -->
<svg xmlns:dc="http://purl.org/dc/elements/1.1/" xmlns:cc="http://creativecommons.org/ns#" xmlns:rdf="http://www.w3.org/1999/02/22-rdf-syntax-ns#" xmlns:svg="http://www.w3.org/2000/svg" xmlns="http://www.w3.org/2000/svg" xmlns:sodipodi="http://sodipodi.sourceforge.net/DTD/sodipodi-0.dtd" xmlns:inkscape="http://www.inkscape.org/namespaces/inkscape" id="svg2" sodipodi:version="0.32" inkscape:version="0.46" width="246.46239" height="127.55141" version="1.0" sodipodi:docname="SchoolBus.svg" inkscape:output_extension="org.inkscape.output.svg.inkscape" inkscape:export-filename="/Users/schoolfreeware/Desktop/S4m_Pics/SchoolBus.png" inkscape:export-xdpi="90" inkscape:export-ydpi="90">
  <defs id="defs5">
    <inkscape:perspective sodipodi:type="inkscape:persp3d" inkscape:vp_x="0 : 526.18109 : 1" inkscape:vp_y="0 : 1000 : 0" inkscape:vp_z="744.09448 : 526.18109 : 1" inkscape:persp3d-origin="372.04724 : 350.78739 : 1" id="perspective9"/>
  </defs>
  <sodipodi:namedview inkscape:window-height="822" inkscape:window-width="1339" inkscape:pageshadow="2" inkscape:pageopacity="0.0" guidetolerance="10.0" gridtolerance="10.0" objecttolerance="10.0" borderopacity="1.0" bordercolor="#666666" pagecolor="#ffffff" id="base" showgrid="false" inkscape:zoom="2.9996796" inkscape:cx="168.32929" inkscape:cy="65.270413" inkscape:window-x="455" inkscape:window-y="40" inkscape:current-layer="svg2" showguides="true" inkscape:guide-bbox="true"/>
  <path style="fill:#ececec;fill-rule:evenodd;stroke:#000000;stroke-width:0.15516533px;stroke-linecap:butt;stroke-linejoin:miter;stroke-opacity:1" d="M 42.912339,29.805623 C 43.177554,30.285453 17.993816,56.678443 17.732781,62.054613 C 17.138333,74.297403 47.204029,35.169993 46.205448,33.965713 L 44.558856,30.221623 L 44.558856,30.221623 L 42.912339,29.805623 z" id="path3264" sodipodi:nodetypes="cscccc"/>
  <path style="fill:#ffff00;fill-rule:evenodd;stroke:#000000;stroke-width:1.2692256;stroke-linecap:butt;stroke-linejoin:miter;stroke-miterlimit:4;stroke-dasharray:none;stroke-opacity:1" d="M 50.041591,109.96104 L 149.81712,110.4258 C 150.08732,104.477 150.43666,102.23135 152.0672,98.658063 C 154.63618,93.438043 158.12285,91.817293 160.68793,90.422713 C 166.49363,87.266263 174.41464,88.793793 177.02802,89.882233 C 180.2845,91.238523 184.79228,95.515183 186.54125,100.29789 C 188.03196,104.37437 188.1079,108.30807 188.13238,110.46925 L 244.24089,110.11675 C 244.24089,110.11675 250.22055,15.266929 238.96474,5.1368635 C 227.70893,-4.9932005 38.11905,5.1368635 38.11905,5.1368635 L 36.360288,27.158751 C 36.360288,27.158751 43.395192,26.277868 43.395192,30.682243 C 43.395192,35.086623 26.511452,55.346773 26.511452,55.346773 C 26.511452,55.346773 2.9446039,65.917263 1.5376375,74.285583 C 0.1306721,82.653903 1.1859149,92.783973 1.1859149,92.783973 L 13.9406,94.570044 C 13.9406,94.570044 23.0255,87.08563 33.176205,88.05839 C 43.358411,89.03417 49.246227,99.925874 50.041591,109.96104 z" id="path3260" sodipodi:nodetypes="cccsssccsccscsccsc"/>
  <path style="fill:#000000;fill-rule:evenodd;stroke:#000000;stroke-width:0.16629246px;stroke-linecap:butt;stroke-linejoin:miter;stroke-opacity:1" d="M 0.4907579,93.25198 L 0.4907579,112.272 L 11.383085,112.272 C 11.383085,112.272 10.211014,100.59966 15.896824,94.132639 L 17.52768,91.679603 L 0.4907579,93.25198 z" id="path3280" sodipodi:nodetypes="cccccc"/>
  <path sodipodi:type="arc" style="opacity:1;fill:#333333;fill-opacity:1;stroke:#000000;stroke-width:79.47562408;stroke-miterlimit:4;stroke-dasharray:none;stroke-opacity:1" id="path2384" sodipodi:cx="338.50461" sodipodi:cy="852.67401" sodipodi:rx="142.37938" sodipodi:ry="128.23572" d="M 480.88399,852.67401 A 142.37938,128.23572 0 1 1 196.12523,852.67401 A 142.37938,128.23572 0 1 1 480.88399,852.67401 z" transform="matrix(9.5037877e-2,0,0,-0.112398,-2.0942601,204.30159)"/>
  <path sodipodi:type="arc" style="opacity:1;fill:#333333;fill-opacity:1;stroke:#000000;stroke-width:79.47562408;stroke-miterlimit:4;stroke-dasharray:none;stroke-opacity:1" id="path3254" sodipodi:cx="338.50461" sodipodi:cy="852.67401" sodipodi:rx="142.37938" sodipodi:ry="128.23572" d="M 480.88399,852.67401 A 142.37938,128.23572 0 1 1 196.12523,852.67401 A 142.37938,128.23572 0 1 1 480.88399,852.67401 z" transform="matrix(9.674358e-2,0,0,-0.1135131,136.3674,205.32038)"/>
  <path style="fill:none;fill-rule:evenodd;stroke:#000000;stroke-width:1.46825373;stroke-linecap:butt;stroke-linejoin:miter;stroke-miterlimit:4;stroke-dasharray:none;stroke-opacity:1" d="M 37.165831,25.25225 C 244.5037,23.509209 244.14253,22.899123 244.14253,22.899123" id="path3266"/>
  <rect style="opacity:1;fill:#ececec;fill-opacity:1;stroke:#000000;stroke-width:1.23970866;stroke-miterlimit:4;stroke-dasharray:none;stroke-opacity:1" id="rect3268" width="24.622066" height="29.949766" x="81.031693" y="34.20573"/>
  <rect style="opacity:1;fill:#ececec;fill-opacity:1;stroke:#000000;stroke-width:1.23970866;stroke-miterlimit:4;stroke-dasharray:none;stroke-opacity:1" id="rect3272" width="24.622066" height="29.949766" x="113.74378" y="33.875439"/>
  <rect style="opacity:1;fill:#ececec;fill-opacity:1;stroke:#000000;stroke-width:1.23970866;stroke-miterlimit:4;stroke-dasharray:none;stroke-opacity:1" id="rect3274" width="24.622066" height="29.949766" x="146.45604" y="33.545139"/>
  <rect style="opacity:1;fill:#ececec;fill-opacity:1;stroke:#000000;stroke-width:1.23970866;stroke-miterlimit:4;stroke-dasharray:none;stroke-opacity:1" id="rect3276" width="24.622066" height="29.949766" x="179.16814" y="33.21487"/>
  <rect style="opacity:1;fill:#ececec;fill-opacity:1;stroke:#000000;stroke-width:1.23970866;stroke-miterlimit:4;stroke-dasharray:none;stroke-opacity:1" id="rect3278" width="24.622066" height="29.949766" x="211.17685" y="32.774426"/>
  <path style="fill:none;fill-rule:evenodd;stroke:#000000;stroke-width:0.14758438px;stroke-linecap:butt;stroke-linejoin:miter;stroke-opacity:1" d="M 1.889433,92.343523 L 1.889433,92.343523 z" id="path3282"/>
  <path style="fill:none;fill-rule:evenodd;stroke:#000000;stroke-width:1.96213341;stroke-linecap:butt;stroke-linejoin:miter;stroke-miterlimit:4;stroke-dasharray:none;stroke-opacity:1" d="M 0.9810667,82.232853 C 245.57896,79.594173 245.15292,78.670573 245.15292,78.670573" id="path3284"/>
  <path style="fill:#ffffff;fill-rule:evenodd;stroke:#000000;stroke-width:0.06461037px;stroke-linecap:butt;stroke-linejoin:miter;stroke-opacity:1" d="M 96.936256,73.158913 L 96.936256,63.925573 L 91.788434,57.479653 L 84.483993,57.479653 L 79.197028,64.099793 L 79.197028,72.897593 L 84.379675,79.387063 L 90.397102,79.387063 L 91.788434,79.387063 L 96.936256,73.158913 z" id="path2734"/>
  <path style="fill:#ff0000;fill-rule:evenodd;stroke:#000000;stroke-width:0.06145925px;stroke-linecap:butt;stroke-linejoin:miter;stroke-opacity:1" d="M 96.528726,72.851743 L 96.528726,64.068733 L 91.631917,57.937193 L 84.683739,57.937193 L 79.654655,64.234453 L 79.654655,72.603173 L 84.584483,78.776153 L 90.308437,78.776153 L 91.631917,78.776153 L 96.528726,72.851743 z" id="path2715"/>
  <path style="font-size:8.4579134px;font-style:normal;font-weight:normal;fill:#ffffff;fill-opacity:1;stroke:none;stroke-width:1px;stroke-linecap:butt;stroke-linejoin:miter;stroke-opacity:1;font-family:Bitstream Vera Sans" d="M 80.443022,69.750077 L 81.268698,69.611395 C 81.367758,70.52729 81.675377,70.984675 82.191555,70.983573 C 82.447317,70.983027 82.647826,70.889693 82.793083,70.703547 C 82.938313,70.514156 83.010012,70.280897 83.008184,70.003793 C 83.007103,69.840789 82.980611,69.70228 82.928706,69.588289 C 82.876796,69.474298 82.798291,69.381548 82.693189,69.31005 C 82.58806,69.235296 82.333802,69.111944 81.930416,68.940018 C 81.569008,68.787564 81.304007,68.621868 81.135414,68.442916 C 80.966819,68.263965 80.831573,68.029525 80.729675,67.739586 C 80.630079,67.446385 80.579172,67.131896 80.576952,66.796096 C 80.574365,66.404892 80.634816,66.052665 80.758304,65.739414 C 80.884116,65.426182 81.0581,65.189449 81.280256,65.029225 C 81.502411,64.869012 81.777409,64.788545 82.105253,64.787845 C 82.598178,64.786792 82.984224,64.973426 83.263395,65.347747 C 83.542557,65.722067 83.692591,66.258047 83.713477,66.955675 L 82.866393,67.021047 C 82.826645,66.636446 82.74465,66.36766 82.620408,66.214688 C 82.496162,66.061728 82.320108,65.985491 82.092248,65.985978 C 81.864385,65.986464 81.68928,66.05367 81.566933,66.187595 C 81.444585,66.321531 81.384068,66.487923 81.385384,66.686781 C 81.386676,66.882395 81.443567,67.046914 81.556058,67.180337 C 81.668546,67.313761 81.926442,67.459923 82.329746,67.6188 C 82.756384,67.790688 83.064506,67.972598 83.254116,68.164542 C 83.446026,68.353224 83.592968,68.599042 83.694954,68.902018 C 83.796918,69.201738 83.849319,69.566762 83.852172,69.997101 C 83.85628,70.619774 83.722558,71.143323 83.451004,71.567711 C 83.181762,71.992106 82.756503,72.204924 82.175224,72.206165 C 81.147519,72.208359 80.570119,71.389671 80.443022,69.750077 M 85.522559,72.07188 L 85.483181,66.115659 L 84.23808,66.118317 L 84.230062,64.905557 L 87.560803,64.898447 L 87.568821,66.111206 L 86.327199,66.113857 L 86.366578,72.070079 L 85.522559,72.07188 M 87.874264,68.526326 C 87.868617,67.672185 87.95349,66.969441 88.128883,66.418095 C 88.306578,65.8635 88.539857,65.450596 88.828706,65.179372 C 89.117555,64.908172 89.468913,64.772124 89.88279,64.771241 C 90.482669,64.76996 90.97307,65.090035 91.353984,65.731465 C 91.737228,66.372903 91.932765,67.286958 91.940618,68.473632 C 91.948542,69.673354 91.754784,70.611071 91.359329,71.286757 C 91.012169,71.884106 90.537492,72.183423 89.93529,72.184709 C 89.328435,72.186004 88.847504,71.891995 88.492516,71.302658 C 88.088129,70.628679 87.882045,69.703231 87.874264,68.526326 M 88.745862,68.475573 C 88.751315,69.300373 88.86702,69.919563 89.09297,70.333109 C 89.318897,70.74341 89.596941,70.948214 89.92711,70.947497 C 90.259602,70.946799 90.533784,70.74245 90.749648,70.334463 C 90.965492,69.92323 91.070611,69.293799 91.065016,68.44617 C 91.059511,67.614846 90.9485,67.000536 90.731956,66.603264 C 90.517744,66.205987 90.238577,66.00771 89.894457,66.008445 C 89.550337,66.009179 89.271488,66.21027 89.057903,66.611729 C 88.844318,67.013187 88.740301,67.634469 88.745862,68.475573 M 92.626977,72.056714 L 92.579581,64.887732 L 93.93978,64.884829 C 94.446654,64.883758 94.778206,64.917283 94.934445,64.985404 C 95.183961,65.095717 95.390131,65.331639 95.552964,65.693171 C 95.71811,66.054697 95.802577,66.520717 95.806349,67.09123 C 95.809776,67.609596 95.742897,68.044962 95.60572,68.397353 C 95.468514,68.746488 95.295759,68.992988 95.087446,69.136878 C 94.879112,69.27751 94.519182,69.348379 94.007655,69.349471 L 93.453117,69.350655 L 93.470995,72.054912 L 92.626977,72.056714 M 93.431617,66.09869 L 93.445067,68.133005 L 93.912417,68.132007 C 94.226304,68.131337 94.438848,68.099907 94.550049,68.037728 C 94.663563,67.975544 94.755836,67.864502 94.826867,67.7046 C 94.89786,67.541443 94.932589,67.342507 94.931037,67.10777 C 94.929464,66.869789 94.890937,66.669364 94.815459,66.506519 C 94.739971,66.343674 94.647409,66.23466 94.537763,66.179466 C 94.428109,66.124283 94.196581,66.097069 93.843163,66.097811 L 93.431617,66.09869" id="text2717"/>
  <rect style="opacity:1;fill:#1a1a1a;fill-opacity:1;stroke:#000000;stroke-width:1.14865661;stroke-miterlimit:4;stroke-dasharray:none;stroke-opacity:1" id="rect3369" width="1.4883446" height="7.1488905" x="77.121864" y="64.985466"/>
  <rect style="opacity:1;fill:#ff0000;fill-opacity:1;stroke:#000000;stroke-width:0;stroke-miterlimit:4;stroke-dasharray:none;stroke-opacity:1" id="rect3371" width="2.8139505" height="10.570507" x="242.48216" y="65.476845"/>
  <path sodipodi:type="arc" style="opacity:1;fill:#800000;fill-opacity:1;stroke:#000000;stroke-width:0;stroke-miterlimit:4;stroke-dasharray:none;stroke-opacity:1" id="path3373" sodipodi:cx="756.08075" sodipodi:cy="535.2771" sodipodi:rx="17.335184" sodipodi:ry="17.335184" d="M 773.41593,535.2771 A 17.335184,17.335184 0 1 1 738.74557,535.2771 A 17.335184,17.335184 0 1 1 773.41593,535.2771 z" transform="matrix(0.1318898,0,0,0.1651464,-11.388906,-27.106459)"/>
  <path sodipodi:type="arc" style="opacity:1;fill:#800000;fill-opacity:1;stroke:#000000;stroke-width:0;stroke-miterlimit:4;stroke-dasharray:none;stroke-opacity:1" id="path3375" sodipodi:cx="756.08075" sodipodi:cy="535.2771" sodipodi:rx="17.335184" sodipodi:ry="17.335184" d="M 773.41593,535.2771 A 17.335184,17.335184 0 1 1 738.74557,535.2771 A 17.335184,17.335184 0 1 1 773.41593,535.2771 z" transform="matrix(0.1318898,0,0,0.1651464,-11.388978,-12.351806)" inkscape:transform-center-x="-2.2862767" inkscape:transform-center-y="2.8627855"/>
  <path style="fill:#e6e6e6;fill-rule:evenodd;stroke:#000000;stroke-width:1.32528865;stroke-linecap:butt;stroke-linejoin:miter;stroke-miterlimit:4;stroke-dasharray:none;stroke-opacity:1" d="M 74.642147,34.718793 C 74.642147,34.718793 75.952578,64.541403 74.260651,64.541403 C 69.401326,64.541403 32.233897,64.963793 32.233897,64.963793 C 32.233897,64.963793 28.258103,63.112053 31.792135,58.791343 C 35.326168,53.236123 48.137007,35.336033 48.137007,35.336033 L 74.642147,34.718793 z" id="path3377" sodipodi:nodetypes="cscccc"/>
  <path style="font-size:56px;font-style:normal;font-weight:bold;fill:#000000;fill-opacity:1;stroke:none;stroke-width:1px;stroke-linecap:butt;stroke-linejoin:miter;stroke-opacity:1;font-family:Bitstream Vera Sans;-inkscape-font-specification:Bitstream Vera Sans Bold" d="M 113.2454,69.488451 L 113.2454,70.91542 C 112.94968,70.749848 112.66117,70.624913 112.37988,70.540614 C 112.09858,70.456326 111.83291,70.414179 111.58287,70.414174 C 111.25108,70.414179 111.00585,70.471379 110.84717,70.585771 C 110.68849,70.700175 110.60915,70.877793 110.60915,71.118626 C 110.60915,71.29926 110.66204,71.440752 110.76783,71.543105 C 110.87602,71.642456 111.07076,71.728254 111.35206,71.800501 L 111.94351,71.949519 C 112.54216,72.100048 112.96771,72.328844 113.22016,72.635909 C 113.4726,72.942982 113.59882,73.3795 113.59883,73.945468 C 113.59882,74.689058 113.42211,75.242987 113.06869,75.607254 C 112.71767,75.968512 112.18032,76.149141 111.45665,76.149141 C 111.11524,76.149141 110.77264,76.1085 110.42883,76.027216 C 110.08503,75.945933 109.74122,75.825515 109.39742,75.665959 L 109.39742,74.198349 C 109.74122,74.427148 110.07301,74.600249 110.39277,74.717657 C 110.71494,74.832057 111.02508,74.889255 111.32321,74.889255 C 111.62614,74.889255 111.85815,74.826036 112.01924,74.699595 C 112.18032,74.573155 112.26086,74.392526 112.26087,74.157708 C 112.26086,73.946976 112.20557,73.784409 112.09497,73.670009 C 111.98678,73.555614 111.7692,73.453258 111.44222,73.362941 L 110.90488,73.213921 C 110.36632,73.069421 109.97203,72.83912 109.72199,72.523016 C 109.47435,72.206919 109.35053,71.780937 109.35053,71.245067 C 109.35053,70.573735 109.52364,70.057438 109.86985,69.696174 C 110.21606,69.334923 110.71374,69.154294 111.36288,69.154287 C 111.6586,69.154294 111.96274,69.182894 112.27529,69.240086 C 112.58784,69.294282 112.91121,69.37707 113.2454,69.488451 M 119.10574,75.647897 C 118.85089,75.813472 118.58522,75.938407 118.30874,76.022701 C 118.03224,76.106994 117.74373,76.149141 117.44321,76.149141 C 116.54642,76.149141 115.83597,75.836051 115.31185,75.20987 C 114.78772,74.580681 114.52566,73.728717 114.52566,72.653972 C 114.52566,71.576224 114.78772,70.72426 115.31185,70.098074 C 115.83597,69.468889 116.54642,69.154294 117.44321,69.154287 C 117.74373,69.154294 118.03224,69.196441 118.30874,69.280728 C 118.58522,69.365027 118.85089,69.489962 119.10574,69.655533 L 119.10574,71.050891 C 118.84848,70.831131 118.59484,70.67007 118.3448,70.567709 C 118.09475,70.465358 117.83149,70.414179 117.55501,70.414174 C 117.05973,70.414179 116.67024,70.612872 116.38654,71.010249 C 116.10284,71.407637 115.96099,71.955545 115.96099,72.653972 C 115.96099,73.349396 116.10284,73.895797 116.38654,74.293179 C 116.67024,74.690564 117.05973,74.889255 117.55501,74.889255 C 117.83149,74.889255 118.09475,74.838078 118.3448,74.73572 C 118.59484,74.633364 118.84848,74.472305 119.10574,74.252538 L 119.10574,75.647897 M 120.24535,69.276211 L 121.6338,69.276211 L 121.6338,71.845658 L 123.68222,71.845658 L 123.68222,69.276211 L 125.07066,69.276211 L 125.07066,76.018184 L 123.68222,76.018184 L 123.68222,73.159733 L 121.6338,73.159733 L 121.6338,76.018184 L 120.24535,76.018184 L 120.24535,69.276211 M 128.87898,70.414174 C 128.45583,70.414179 128.12765,70.609861 127.89445,71.001218 C 127.66124,71.392586 127.54462,71.943503 127.54462,72.653972 C 127.54462,73.361438 127.66124,73.91085 127.89445,74.302211 C 128.12765,74.693575 128.45583,74.889255 128.87898,74.889255 C 129.30453,74.889255 129.63391,74.693575 129.86712,74.302211 C 130.10033,73.91085 130.21693,73.361438 130.21695,72.653972 C 130.21693,71.943503 130.10033,71.392586 129.86712,71.001218 C 129.63391,70.609861 129.30453,70.414179 128.87898,70.414174 M 128.87898,69.154287 C 129.7445,69.154294 130.4225,69.464374 130.91297,70.084527 C 131.40343,70.704692 131.64866,71.561172 131.64866,72.653972 C 131.64866,73.743768 131.40343,74.598745 130.91297,75.218902 C 130.4225,75.839062 129.7445,76.149141 128.87898,76.149141 C 128.01585,76.149141 127.33786,75.839062 126.845,75.218902 C 126.35453,74.598745 126.10929,73.743768 126.10929,72.653972 C 126.10929,71.561172 126.35453,70.704692 126.845,70.084527 C 127.33786,69.464374 128.01585,69.154294 128.87898,69.154287 M 135.15406,70.414174 C 134.7309,70.414179 134.40272,70.609861 134.16951,71.001218 C 133.9363,71.392586 133.8197,71.943503 133.8197,72.653972 C 133.8197,73.361438 133.9363,73.91085 134.16951,74.302211 C 134.40272,74.693575 134.7309,74.889255 135.15406,74.889255 C 135.5796,74.889255 135.90898,74.693575 136.1422,74.302211 C 136.3754,73.91085 136.49201,73.361438 136.49201,72.653972 C 136.49201,71.943503 136.3754,71.392586 136.1422,71.001218 C 135.90898,70.609861 135.5796,70.414179 135.15406,70.414174 M 135.15406,69.154287 C 136.01957,69.154294 136.69758,69.464374 137.18803,70.084527 C 137.67849,70.704692 137.92373,71.561172 137.92374,72.653972 C 137.92373,73.743768 137.67849,74.598745 137.18803,75.218902 C 136.69758,75.839062 136.01957,76.149141 135.15406,76.149141 C 134.29093,76.149141 133.61294,75.839062 133.12006,75.218902 C 132.62959,74.598745 132.38437,73.743768 132.38437,72.653972 C 132.38437,71.561172 132.62959,70.704692 133.12006,70.084527 C 133.61294,69.464374 134.29093,69.154294 135.15406,69.154287 M 138.96958,69.276211 L 140.35803,69.276211 L 140.35803,74.70411 L 142.79594,74.70411 L 142.79594,76.018184 L 138.96958,76.018184 L 138.96958,69.276211 M 148.41104,71.886299 C 148.62982,71.886304 148.79571,71.826093 148.90871,71.70567 C 149.02171,71.585255 149.07822,71.407637 149.07822,71.172816 C 149.07822,70.941013 149.02171,70.764901 148.90871,70.644476 C 148.79571,70.521052 148.62982,70.459337 148.41104,70.459332 L 147.64289,70.459332 L 147.64289,71.886299 L 148.41104,71.886299 M 148.45793,74.835066 C 148.73681,74.835067 148.94598,74.76131 149.08543,74.613796 C 149.22728,74.466284 149.2982,74.243508 149.29821,73.945468 C 149.2982,73.653455 149.22848,73.435194 149.08903,73.290689 C 148.94958,73.143179 148.73921,73.069421 148.45793,73.069418 L 147.64289,73.069418 L 147.64289,74.835066 L 148.45793,74.835066 M 149.74899,72.410124 C 150.04712,72.518504 150.27793,72.718701 150.44142,73.010715 C 150.60491,73.302733 150.68665,73.660981 150.68665,74.085456 C 150.68665,74.735722 150.51113,75.220408 150.16012,75.539519 C 149.8091,75.85863 149.27535,76.018184 148.5589,76.018184 L 146.25443,76.018184 L 146.25443,69.276211 L 148.33891,69.276211 C 149.08663,69.27622 149.62758,69.417712 149.96177,69.700691 C 150.29835,69.983681 150.46666,70.436758 150.46666,71.059923 C 150.46666,71.388069 150.40534,71.668043 150.28274,71.899846 C 150.16012,72.128647 149.9822,72.298739 149.74899,72.410124 M 151.88036,69.276211 L 153.2688,69.276211 L 153.2688,73.317783 C 153.2688,73.874725 153.34093,74.273613 153.48518,74.514449 C 153.63184,74.75228 153.86986,74.871193 154.19925,74.871192 C 154.53103,74.871193 154.76905,74.75228 154.91331,74.514449 C 155.05996,74.273613 155.13329,73.874725 155.13329,73.317783 L 155.13329,69.276211 L 156.52175,69.276211 L 156.52175,73.317783 C 156.52173,74.272108 156.3306,74.982581 155.94833,75.449204 C 155.56606,75.915828 154.98303,76.149141 154.19925,76.149141 C 153.41787,76.149141 152.83605,75.915828 152.45376,75.449204 C 152.07149,74.982581 151.88036,74.272108 151.88036,73.317783 L 151.88036,69.276211 M 161.62835,69.488451 L 161.62835,70.91542 C 161.33262,70.749848 161.04412,70.624913 160.76282,70.540614 C 160.48153,70.456326 160.21586,70.414179 159.96582,70.414174 C 159.63403,70.414179 159.38879,70.471379 159.23012,70.585771 C 159.07144,70.700175 158.9921,70.877793 158.99211,71.118626 C 158.9921,71.29926 159.045,71.440752 159.15079,71.543105 C 159.25897,71.642456 159.45371,71.728254 159.73502,71.800501 L 160.32645,71.949519 C 160.92511,72.100048 161.35065,72.328844 161.6031,72.635909 C 161.85555,72.942982 161.98177,73.3795 161.98177,73.945468 C 161.98177,74.689058 161.80505,75.242987 161.45164,75.607254 C 161.10062,75.968512 160.56327,76.149141 159.83959,76.149141 C 159.4982,76.149141 159.15559,76.1085 158.81179,76.027216 C 158.46798,75.945933 158.12417,75.825515 157.78036,75.665959 L 157.78036,74.198349 C 158.12417,74.427148 158.45595,74.600249 158.77572,74.717657 C 159.09788,74.832057 159.40804,74.889255 159.70616,74.889255 C 160.0091,74.889255 160.2411,74.826036 160.4022,74.699595 C 160.56327,74.573155 160.64382,74.392526 160.64382,74.157708 C 160.64382,73.946976 160.58852,73.784409 160.47793,73.670009 C 160.36972,73.555614 160.15215,73.453258 159.82518,73.362941 L 159.28782,73.213921 C 158.74927,73.069421 158.35498,72.83912 158.10494,72.523016 C 157.8573,72.206919 157.73348,71.780937 157.73348,71.245067 C 157.73348,70.573735 157.90659,70.057438 158.2528,69.696174 C 158.59901,69.334923 159.09668,69.154294 159.74583,69.154287 C 160.04156,69.154294 160.34568,69.182894 160.65825,69.240086 C 160.97079,69.294282 161.29415,69.37707 161.62835,69.488451" id="flowRoot3379"/>
  <path sodipodi:type="arc" style="opacity:1;fill:#800000;fill-opacity:1;stroke:#2e6a00;stroke-width:0;stroke-linejoin:round;stroke-miterlimit:4;stroke-dasharray:none;stroke-opacity:1" id="path2404" sodipodi:cx="-69.00737" sodipodi:cy="77.648262" sodipodi:rx="0.33336893" sodipodi:ry="6.3340096" d="M -68.674001,77.648262 A 0.33336893,6.3340096 0 1 1 -69.340739,77.648262 A 0.33336893,6.3340096 0 1 1 -68.674001,77.648262 z" transform="matrix(2.4932396,0.1837293,-8.1227715e-2,1.1022744,214.83456,-58.320871)"/>
  <metadata>
    <rdf:RDF>
      <cc:Work>
        <dc:format>image/svg+xml</dc:format>
        <dc:type rdf:resource="http://purl.org/dc/dcmitype/StillImage"/>
        <cc:license rdf:resource="http://creativecommons.org/licenses/publicdomain/"/>
        <dc:publisher>
          <cc:Agent rdf:about="http://openclipart.org/">
            <dc:title>Open Clip Art Library</dc:title>
          </cc:Agent>
        </dc:publisher>
        <dc:title>School Bus</dc:title>
        <dc:date>2008-10-18T03:34:22</dc:date>
        <dc:description>Mini School Bus</dc:description>
        <dc:source>http://openclipart.org/detail/19619/school-bus-by-schoolfreeware</dc:source>
        <dc:creator>
          <cc:Agent>
            <dc:title>schoolfreeware</dc:title>
          </cc:Agent>
        </dc:creator>
        <dc:subject>
          <rdf:Bag>
            <rdf:li>bus</rdf:li>
            <rdf:li>bus</rdf:li>
            <rdf:li>clip art</rdf:li>
            <rdf:li>clipart</rdf:li>
            <rdf:li>education</rdf:li>
            <rdf:li>education</rdf:li>
            <rdf:li>image</rdf:li>
            <rdf:li>media</rdf:li>
            <rdf:li>mini bus</rdf:li>
            <rdf:li>mini bus</rdf:li>
            <rdf:li>png</rdf:li>
            <rdf:li>public domain</rdf:li>
            <rdf:li>school</rdf:li>
            <rdf:li>school</rdf:li>
            <rdf:li>school bus</rdf:li>
            <rdf:li>school bus</rdf:li>
            <rdf:li>svg</rdf:li>
            <rdf:li>transportation</rdf:li>
            <rdf:li>transportation</rdf:li>
          </rdf:Bag>
        </dc:subject>
      </cc:Work>
      <cc:License rdf:about="http://creativecommons.org/licenses/publicdomain/">
        <cc:permits rdf:resource="http://creativecommons.org/ns#Reproduction"/>
        <cc:permits rdf:resource="http://creativecommons.org/ns#Distribution"/>
        <cc:permits rdf:resource="http://creativecommons.org/ns#DerivativeWorks"/>
      </cc:License>
    </rdf:RDF>
  </metadata>
</svg>
